<svg width="41" height="38" viewBox="0 0 41 38" fill="none" xmlns="http://www.w3.org/2000/svg">
<path d="M15.375 11.0834L22.2083 11.0834" stroke="black" stroke-width="2" stroke-linecap="round"/>
<path d="M15.375 23.75L20.5 23.75" stroke="black" stroke-width="2" stroke-linecap="round"/>
<path d="M15.375 17.4166L25.625 17.4166" stroke="black" stroke-width="2" stroke-linecap="round"/>
<path d="M32.4583 17.4167V10.75C32.4583 7.92157 32.4583 6.50736 31.5797 5.62868C30.701 4.75 29.2868 4.75 26.4583 4.75H14.5417C11.7132 4.75 10.299 4.75 9.42034 5.62868C8.54166 6.50736 8.54166 7.92157 8.54166 10.75V27.25C8.54166 30.0784 8.54166 31.4926 9.42034 32.3713C10.299 33.25 11.7132 33.25 14.5417 33.25H20.5" stroke="black" stroke-width="2"/>
<ellipse cx="29.8958" cy="27.7083" rx="4.27083" ry="3.95833" stroke="black" stroke-width="2"/>
<path d="M35.875 33.25L33.3125 30.875" stroke="black" stroke-width="2" stroke-linecap="round"/>
</svg>
