<svg width="24" height="25" viewBox="0 0 24 25" fill="none" xmlns="http://www.w3.org/2000/svg">
<path d="M10.3073 7.92445C10.9494 6.32377 11.2704 5.52342 11.792 5.4125C11.9291 5.38333 12.0709 5.38333 12.208 5.4125C12.7296 5.52342 13.0506 6.32377 13.6927 7.92445C14.0578 8.83473 14.2404 9.28987 14.582 9.59944C14.6778 9.68627 14.7819 9.7636 14.8926 9.83035C15.2874 10.0683 15.7803 10.1125 16.7661 10.2008C18.4349 10.3502 19.2693 10.4249 19.5241 10.9007C19.5768 10.9992 19.6127 11.1059 19.6302 11.2163C19.7147 11.7493 19.1013 12.3074 17.8745 13.4235L17.5338 13.7334C16.9603 14.2552 16.6735 14.5161 16.5076 14.8417C16.4081 15.0371 16.3414 15.2474 16.3102 15.4644C16.258 15.8261 16.342 16.2045 16.51 16.9615L16.57 17.232C16.8712 18.5895 17.0218 19.2683 16.8338 19.6019C16.6649 19.9016 16.3539 20.0935 16.0103 20.1099C15.6277 20.1282 15.0888 19.689 14.0108 18.8106C13.3006 18.2319 12.9455 17.9425 12.5513 17.8295C12.191 17.7262 11.809 17.7262 11.4487 17.8295C11.0545 17.9425 10.6994 18.2319 9.98921 18.8106C8.91124 19.689 8.37225 20.1282 7.98973 20.1099C7.64613 20.0935 7.33509 19.9016 7.16622 19.6019C6.97823 19.2683 7.12882 18.5895 7.43002 17.232L7.49003 16.9615C7.65798 16.2045 7.74196 15.8261 7.68984 15.4644C7.65858 15.2474 7.59187 15.0371 7.49237 14.8417C7.32649 14.5161 7.03972 14.2552 6.46618 13.7334L6.1255 13.4235C4.89871 12.3074 4.28532 11.7493 4.36979 11.2163C4.38729 11.1059 4.42317 10.9992 4.47594 10.9007C4.73074 10.4249 5.56512 10.3502 7.23388 10.2008C8.21967 10.1125 8.71256 10.0683 9.1074 9.83035C9.21815 9.7636 9.32216 9.68627 9.41798 9.59944C9.75959 9.28987 9.94216 8.83473 10.3073 7.92445Z" fill="#FFD234"/>
</svg>
